<svg xmlns="http://www.w3.org/2000/svg" viewBox="0 0 900 620" role="img" aria-label="AI report review panel over radiology scans">
  <defs>
    <linearGradient id="bg" x1="0" y1="0" x2="1" y2="1"><stop stop-color="#17181d"/><stop offset="1" stop-color="#020203"/></linearGradient>
    <radialGradient id="scan" cx="50%" cy="50%" r="50%"><stop stop-color="#f5f5f5"/><stop offset="0.48" stop-color="#868b93"/><stop offset="0.72" stop-color="#111318"/><stop offset="1" stop-color="#030304"/></radialGradient>
  </defs>
  <rect width="900" height="620" rx="36" fill="url(#bg)"/>
  <rect x="24" y="24" width="852" height="572" rx="26" fill="#050506" stroke="#30323a"/>
  <rect x="52" y="56" width="500" height="508" rx="18" fill="#030304" stroke="#242831"/>
  <circle cx="302" cy="218" r="150" fill="url(#scan)" opacity="0.9"/>
  <ellipse cx="246" cy="218" rx="68" ry="44" fill="#08090d" opacity="0.88"/>
  <ellipse cx="358" cy="218" rx="68" ry="44" fill="#08090d" opacity="0.88"/>
  <circle cx="302" cy="218" r="34" fill="#ffffff" opacity="0.62"/>
  <path d="M160 450 C205 350,395 350,442 450 C402 530,200 530,160 450Z" fill="url(#scan)" opacity="0.84"/>
  <rect x="584" y="56" width="264" height="508" rx="18" fill="#111218" stroke="#30323a"/>
  <text x="612" y="102" fill="#ffffff" font-family="Inter, Arial" font-size="24" font-weight="700">ProxoAI Review</text>
  <g fill="#ff3333"><rect x="612" y="130" width="112" height="8" rx="4"/><rect x="612" y="148" width="188" height="8" rx="4" opacity="0.45"/></g>
  <g fill="#d8dce3" opacity="0.74"><rect x="612" y="206" width="198" height="13" rx="6"/><rect x="612" y="235" width="160" height="13" rx="6"/><rect x="612" y="264" width="210" height="13" rx="6"/><rect x="612" y="322" width="140" height="13" rx="6"/><rect x="612" y="351" width="206" height="13" rx="6"/><rect x="612" y="410" width="188" height="13" rx="6"/><rect x="612" y="439" width="148" height="13" rx="6"/></g>
  <g fill="#37d399" opacity="0.88"><circle cx="594" cy="212" r="5"/><circle cx="594" cy="328" r="5"/><circle cx="594" cy="416" r="5"/></g>
  <text x="612" y="514" fill="#ffd7d7" font-family="Inter, Arial" font-size="15" font-weight="700">Assistive workflow only</text>
</svg>
