<svg xmlns="http://www.w3.org/2000/svg" viewBox="0 0 1600 1200" role="img" aria-label="PACS workstation with DICOM worklist and CT scan monitors">
  <defs>
    <linearGradient id="case" x1="0" y1="0" x2="0" y2="1">
      <stop stop-color="#1b1c20"/>
      <stop offset="0.42" stop-color="#07080a"/>
      <stop offset="1" stop-color="#010102"/>
    </linearGradient>
    <linearGradient id="bezel" x1="0" y1="0" x2="1" y2="1">
      <stop stop-color="#24262c"/>
      <stop offset="0.45" stop-color="#08090c"/>
      <stop offset="1" stop-color="#17191e"/>
    </linearGradient>
    <linearGradient id="stand" x1="0" y1="0" x2="0" y2="1">
      <stop stop-color="#eeeeee"/>
      <stop offset="0.45" stop-color="#aeb0b5"/>
      <stop offset="1" stop-color="#5d6068"/>
    </linearGradient>
    <linearGradient id="viewerHeader" x1="0" y1="0" x2="0" y2="1">
      <stop stop-color="#3a3c42"/>
      <stop offset="1" stop-color="#17191f"/>
    </linearGradient>
    <radialGradient id="ct" cx="50%" cy="50%" r="54%">
      <stop stop-color="#fbfbfb"/>
      <stop offset="0.18" stop-color="#e8e8e8"/>
      <stop offset="0.42" stop-color="#8b9098"/>
      <stop offset="0.66" stop-color="#181b20"/>
      <stop offset="1" stop-color="#030304"/>
    </radialGradient>
    <radialGradient id="xray" cx="50%" cy="42%" r="58%">
      <stop stop-color="#e9e9e9"/>
      <stop offset="0.38" stop-color="#9ea3aa"/>
      <stop offset="0.68" stop-color="#282c32"/>
      <stop offset="1" stop-color="#050608"/>
    </radialGradient>
    <filter id="monitorShadow" x="-18%" y="-18%" width="136%" height="140%">
      <feDropShadow dx="0" dy="32" stdDeviation="32" flood-color="#000" flood-opacity="0.82"/>
    </filter>
    <filter id="softGlow" x="-30%" y="-30%" width="160%" height="160%">
      <feGaussianBlur stdDeviation="5" result="blur"/>
      <feMerge><feMergeNode in="blur"/><feMergeNode in="SourceGraphic"/></feMerge>
    </filter>
    <pattern id="rows" width="1" height="30" patternUnits="userSpaceOnUse">
      <rect width="1" height="30" fill="#11131a"/>
      <rect y="15" width="1" height="15" fill="#171922" opacity="0.74"/>
    </pattern>
  </defs>

  <rect width="1600" height="1200" fill="#000"/>
  <ellipse cx="790" cy="1020" rx="620" ry="72" fill="#000" opacity="0.82"/>

  <g filter="url(#monitorShadow)">
    <rect x="720" y="108" width="560" height="570" rx="12" fill="url(#bezel)" stroke="#20232a" stroke-width="6"/>
    <rect x="744" y="132" width="512" height="520" rx="4" fill="#050506" stroke="#2d3038" stroke-width="2"/>
    <rect x="756" y="144" width="488" height="46" fill="url(#viewerHeader)"/>
    <g fill="#d5d7dc" opacity="0.7">
      <rect x="770" y="158" width="24" height="9" rx="1"/><rect x="802" y="158" width="24" height="9" rx="1"/><rect x="834" y="158" width="24" height="9" rx="1"/>
      <rect x="884" y="154" width="64" height="18" rx="2"/><rect x="958" y="154" width="64" height="18" rx="2"/><rect x="1032" y="154" width="64" height="18" rx="2"/>
      <rect x="1106" y="154" width="64" height="18" rx="2"/>
    </g>
    <g fill="#69717c" opacity="0.7">
      <rect x="766" y="206" width="62" height="8"/><rect x="840" y="206" width="62" height="8"/><rect x="914" y="206" width="62" height="8"/><rect x="988" y="206" width="62" height="8"/><rect x="1062" y="206" width="62" height="8"/>
    </g>

    <g transform="translate(758 226)">
      <rect width="118" height="402" fill="#101117" stroke="#2a2e36"/>
      <rect x="13" y="14" width="92" height="78" fill="#181a20" stroke="#2e333c"/>
      <path d="M34 78 C38 38,82 38,86 78" fill="none" stroke="#d6d6d6" stroke-width="9" opacity="0.72"/>
      <rect x="13" y="106" width="92" height="78" fill="#15171d" stroke="#2e333c"/>
      <circle cx="59" cy="145" r="31" fill="url(#ct)" opacity="0.92"/>
      <rect x="13" y="198" width="92" height="78" fill="#15171d" stroke="#2e333c"/>
      <path d="M27 262 C36 210,82 210,91 262" fill="none" stroke="#d6d6d6" stroke-width="7" opacity="0.68"/>
      <g fill="#727a86" opacity="0.62">
        <rect x="16" y="306" width="80" height="7"/><rect x="16" y="329" width="62" height="7"/><rect x="16" y="352" width="74" height="7"/><rect x="16" y="375" width="56" height="7"/>
      </g>
    </g>

    <g transform="translate(894 226)">
      <rect width="338" height="402" fill="#020203" stroke="#20242b"/>
      <g opacity="0.92">
        <path d="M90 170 C112 80,230 78,252 170 C222 226,118 226,90 170Z" fill="url(#xray)"/>
        <path d="M137 168 C147 130,165 126,170 160 C176 126,195 130,204 168" fill="none" stroke="#0b0d10" stroke-width="18" stroke-linecap="round"/>
        <ellipse cx="169" cy="285" rx="118" ry="72" fill="url(#ct)"/>
        <ellipse cx="126" cy="285" rx="44" ry="29" fill="#090b0f" opacity="0.92"/>
        <ellipse cx="212" cy="285" rx="44" ry="29" fill="#090b0f" opacity="0.92"/>
        <circle cx="169" cy="285" r="24" fill="#f2f2f2" opacity="0.6"/>
      </g>
      <g fill="#dfefff" font-family="monospace" font-size="10" opacity="0.68">
        <text x="14" y="22">PATIENT: DEMO HANAKO</text><text x="210" y="22">AN: 178506</text>
        <text x="14" y="44">STUDY: CHEST CT</text><text x="14" y="382">W: 350 L: 40 / AXIAL</text>
      </g>
      <g stroke="#7fdcff" opacity="0.48"><path d="M310 70V360"/><path d="M304 96H318"/><path d="M304 196H318"/><path d="M304 296H318"/></g>
    </g>
    <rect x="925" y="676" width="96" height="76" fill="url(#stand)" opacity="0.95"/>
    <rect x="848" y="748" width="250" height="28" rx="4" fill="url(#stand)"/>
  </g>

  <g filter="url(#monitorShadow)">
    <rect x="82" y="468" width="888" height="438" rx="12" fill="url(#bezel)" stroke="#1d2028" stroke-width="6"/>
    <rect x="108" y="493" width="836" height="366" rx="4" fill="#06070a" stroke="#2b2f38" stroke-width="2"/>
    <rect x="108" y="493" width="836" height="44" fill="url(#viewerHeader)"/>
    <text x="260" y="522" fill="#ffffff" font-family="Inter, Arial, sans-serif" font-size="18" font-weight="700">Worklist</text>
    <g fill="#c8ccd4" opacity="0.62"><rect x="120" y="509" width="18" height="8"/><rect x="146" y="509" width="18" height="8"/><rect x="172" y="509" width="18" height="8"/><rect x="870" y="506" width="18" height="14"/><rect x="898" y="506" width="18" height="14"/></g>

    <rect x="126" y="552" width="132" height="284" fill="#101118" stroke="#252934"/>
    <g fill="#818997" opacity="0.48">
      <rect x="142" y="570" width="78" height="8"/><rect x="142" y="594" width="94" height="8"/><rect x="142" y="618" width="66" height="8"/>
      <rect x="142" y="672" width="96" height="8"/><rect x="142" y="696" width="82" height="8"/><rect x="142" y="720" width="104" height="8"/>
      <rect x="142" y="774" width="82" height="8"/><rect x="142" y="798" width="104" height="8"/>
    </g>
    <rect x="270" y="552" width="652" height="284" fill="url(#rows)" stroke="#242934"/>
    <g fill="#bfdfc7" opacity="0.82">
      <rect x="282" y="565" width="70" height="18"/><rect x="360" y="565" width="132" height="18"/><rect x="502" y="565" width="74" height="18"/><rect x="586" y="565" width="118" height="18"/><rect x="714" y="565" width="188" height="18"/>
    </g>
    <g font-family="Inter, Arial, sans-serif" font-size="13" fill="#d7dae0" opacity="0.58">
      <text x="285" y="613">S</text><text x="360" y="613">Asha Mehra</text><text x="504" y="613">MR</text><text x="586" y="613">Brain Screening</text><text x="738" y="613">Ready</text>
      <text x="285" y="646">S</text><text x="360" y="646">Mark Huberman</text><text x="504" y="646">CT</text><text x="586" y="646">Chest Contrast</text><text x="738" y="646">AI Review</text>
      <text x="285" y="679">S</text><text x="360" y="679">Rakesh Rao</text><text x="504" y="679">XR</text><text x="586" y="679">Spine</text><text x="738" y="679">Report</text>
      <text x="285" y="712">S</text><text x="360" y="712">Meera Iyer</text><text x="504" y="712">US</text><text x="586" y="712">Abdomen</text><text x="738" y="712">Uploaded</text>
      <text x="285" y="745">S</text><text x="360" y="745">K. Patel</text><text x="504" y="745">CR</text><text x="586" y="745">Knee</text><text x="738" y="745">Remote Read</text>
      <text x="285" y="778">S</text><text x="360" y="778">S. Nair</text><text x="504" y="778">CT</text><text x="586" y="778">Angio</text><text x="738" y="778">Assigned</text>
      <text x="285" y="811">S</text><text x="360" y="811">P. Shah</text><text x="504" y="811">MG</text><text x="586" y="811">Screening</text><text x="738" y="811">Pending</text>
    </g>
    <g fill="#ff1f1f" filter="url(#softGlow)"><rect x="344" y="634" width="12" height="12"/><rect x="344" y="733" width="12" height="12"/></g>
    <rect x="410" y="906" width="116" height="88" fill="url(#stand)" opacity="0.95"/>
    <rect x="322" y="990" width="292" height="30" rx="4" fill="url(#stand)"/>
  </g>

  <g filter="url(#monitorShadow)">
    <rect x="940" y="478" width="324" height="438" rx="12" fill="url(#bezel)" stroke="#1d2028" stroke-width="6"/>
    <rect x="962" y="502" width="280" height="368" rx="4" fill="#030304" stroke="#2b2f38" stroke-width="2"/>
    <rect x="962" y="502" width="280" height="38" fill="url(#viewerHeader)"/>
    <g fill="#dfefff" font-family="monospace" font-size="10" opacity="0.62">
      <text x="978" y="526">CT CHEST W/LUNG WINDOW</text>
    </g>
    <ellipse cx="1102" cy="630" rx="111" ry="86" fill="url(#ct)" opacity="0.94"/>
    <ellipse cx="1060" cy="630" rx="43" ry="31" fill="#06070a" opacity="0.95"/>
    <ellipse cx="1144" cy="630" rx="43" ry="31" fill="#06070a" opacity="0.95"/>
    <circle cx="1102" cy="630" r="24" fill="#ffffff" opacity="0.62"/>
    <path d="M1002 793 C1032 718,1170 718,1202 793 C1174 846,1032 846,1002 793Z" fill="url(#ct)" opacity="0.86"/>
    <g fill="#dfefff" font-family="monospace" font-size="10" opacity="0.58">
      <text x="980" y="856">AXIAL ST WITH DOSE / SERIES 4</text>
    </g>
    <rect x="1044" y="916" width="96" height="76" fill="url(#stand)" opacity="0.95"/>
    <rect x="982" y="988" width="222" height="28" rx="4" fill="url(#stand)"/>
  </g>
</svg>
