<svg version="1.1" id="Layer_1" xmlns="http://www.w3.org/2000/svg" xmlns:xlink="http://www.w3.org/1999/xlink" x="0px" y="0px"
	 viewBox="0 0 64 64" xml:space="preserve" role="img" aria-label="ProxoPACS logo mark">
<defs>
	<linearGradient id="logo-red" x1="8" y1="6" x2="56" y2="58" gradientUnits="userSpaceOnUse">
		<stop offset="0" stop-color="#FF4D4D"/>
		<stop offset="0.5" stop-color="#FF3333"/>
		<stop offset="1" stop-color="#CC0000"/>
	</linearGradient>
</defs>
<path fill="url(#logo-red)" opacity="1.000000" stroke="none" transform="translate(10.5 4) scale(0.127) translate(-330 -81)"
	d="
M663.924683,322.732056
	C651.940002,344.663727 633.667603,356.972656 609.130188,356.197327
	C578.865295,355.240967 551.589539,363.255188 525.883423,378.256134
	C502.450317,391.930664 480.520447,407.536194 463.149353,428.720123
	C454.440826,439.340210 449.670563,451.624573 449.351410,465.437103
	C448.639526,496.247986 418.906403,523.570679 388.156281,521.573120
	C355.779846,519.469971 331.290955,495.712952 330.155396,463.359894
	C328.971588,429.632538 352.920532,404.166962 384.369293,400.587494
	C394.505402,399.433746 404.549469,401.193359 414.740173,400.153992
	C434.410706,398.147797 452.260925,391.423767 469.249969,381.908875
	C488.213257,371.288300 505.722595,358.565002 521.947144,344.123871
	C531.201599,335.886688 539.413391,326.733154 544.772766,315.344666
	C549.767639,304.730591 549.987610,294.178711 544.618286,283.636292
	C538.698547,272.013245 530.308899,262.403259 520.341858,254.125763
	C500.061584,237.283096 479.090485,221.415131 455.541168,209.307327
	C436.331726,199.430862 416.271606,194.596924 394.363708,196.995911
	C370.111267,199.651642 347.377350,186.721741 336.482208,165.567596
	C325.272552,143.802872 327.703094,118.737907 343.865143,100.216759
	C359.442993,82.365059 379.569885,75.886864 402.513519,81.532516
	C425.650085,87.225632 439.394287,103.047462 445.201904,125.895058
	C446.097656,129.418991 446.689392,133.121033 446.720276,136.746674
	C446.862335,153.418533 454.796112,166.499512 466.112427,177.616882
	C493.457336,204.481018 524.757385,225.190628 561.618103,236.745560
	C575.315491,241.039368 589.454285,241.891724 603.638062,240.432388
	C634.039001,237.304474 663.851440,259.235992 668.853821,289.298737
	C670.738953,300.627777 669.418884,311.901276 663.924683,322.732056
z"/>
</svg>
